<svg version="1.1" id="Layer_1" xmlns="http://www.w3.org/2000/svg" xmlns:xlink="http://www.w3.org/1999/xlink" x="0px" y="0px"
	 width="100%" viewBox="0 0 1024 1024" enable-background="new 0 0 1024 1024" xml:space="preserve">
<path fill="#000000" opacity="1.000000" stroke="none" 
	d="
M461.738342,271.572845 
	C534.820251,251.032867 612.343933,274.228546 657.066223,340.115753 
	C671.170044,360.894073 680.230591,383.966309 685.015747,408.543060 
	C686.294983,415.113525 689.330017,417.143555 695.277954,418.812622 
	C748.921692,433.865540 787.219543,466.609497 803.780884,520.331177 
	C822.245300,580.226318 808.116821,633.376099 762.756531,676.935425 
	C739.283203,699.476746 710.449280,712.072937 677.848389,715.410522 
	C648.927246,718.371338 619.915771,716.252197 590.953430,716.910156 
	C589.661743,716.939514 588.249512,717.037048 587.075745,715.620422 
	C588.128845,711.661926 591.140381,708.940735 594.210388,706.568665 
	C604.734375,698.437256 612.686462,688.346375 617.981628,676.202698 
	C619.293762,673.193542 621.288696,672.549255 624.245728,672.577087 
	C635.910034,672.687073 647.590637,673.007568 659.238586,672.558777 
	C696.717590,671.114624 727.097839,655.983704 748.424500,624.597351 
	C783.202393,573.414734 765.326843,508.111694 717.790466,476.617584 
	C698.817139,464.047211 677.897278,457.876099 655.410278,456.312622 
	C654.745544,456.266388 654.077026,456.265594 653.413879,456.204254 
	C644.905701,455.417511 645.072388,455.407043 644.628723,446.840393 
	C642.571472,407.118835 629.808167,371.907532 600.190002,344.194183 
	C571.698120,317.534698 537.849976,305.838104 498.979584,310.173706 
	C442.215729,316.505066 399.127625,355.871307 386.344482,412.491455 
	C384.697937,419.784454 382.939728,427.064819 382.202789,434.527771 
	C381.806519,438.540771 380.335541,440.348602 375.664307,440.519867 
	C357.196594,441.196960 338.647797,442.196564 321.450104,450.001495 
	C283.920502,467.033600 260.100708,495.442322 253.341736,536.359863 
	C246.081421,580.312317 260.296844,617.215088 294.080872,646.071167 
	C312.719360,661.990845 334.906708,670.472656 359.424530,671.658386 
	C406.709961,673.945251 454.040985,672.082947 501.348572,672.634827 
	C505.971436,672.688721 507.859772,671.419556 506.957825,666.177979 
	C506.122986,661.326172 506.300598,656.149475 506.968414,651.243225 
	C507.408478,648.010376 506.776459,646.045166 504.538330,643.848694 
	C485.390503,625.057068 466.302429,606.203674 447.316986,587.248169 
	C444.491089,584.426758 441.989014,583.829163 438.087830,585.111816 
	C410.452271,594.197571 381.161987,574.679382 379.826996,543.670105 
	C378.508148,513.035095 407.268311,490.912720 436.839600,499.419647 
	C441.661713,500.806885 444.739777,500.151398 448.238220,496.591949 
	C467.275177,477.223053 486.515717,458.053650 505.766388,438.896149 
	C508.014709,436.658691 508.488220,434.590271 507.951202,431.389771 
	C503.657745,405.800995 518.147705,383.846191 542.669922,378.350647 
	C569.736389,372.284912 594.947815,392.716949 595.474915,420.368439 
	C595.910645,443.230103 579.143860,464.412140 552.741394,466.181427 
	C547.368164,466.541504 542.079346,465.663757 537.011230,463.978302 
	C534.102844,463.011139 532.022888,463.359436 529.836609,465.540863 
	C509.901489,485.431366 489.904907,505.260315 469.897369,525.078125 
	C467.985870,526.971436 467.170105,528.774902 467.836792,531.698303 
	C469.325104,538.224731 469.447968,544.928528 467.967712,551.486938 
	C467.379028,554.095276 467.738068,555.894226 469.611694,557.739807 
	C489.198639,577.033569 508.784790,596.328613 528.242615,615.752197 
	C531.040833,618.545410 533.637939,617.367004 536.484375,616.549011 
	C560.634827,609.608337 585.726257,622.985291 592.549866,646.954712 
	C597.171326,663.188721 593.904602,678.076843 582.156006,690.467651 
	C576.094666,696.860291 569.564575,702.869263 562.804199,708.522949 
	C554.576172,715.403992 544.371338,716.834778 534.105469,716.807922 
	C474.618805,716.652405 415.032837,719.223999 355.672668,715.830750 
	C297.564606,712.509033 253.939865,683.169128 225.741104,631.949280 
	C211.865067,606.744873 205.386566,579.390930 206.964005,550.765747 
	C210.329376,489.695465 237.163895,442.624329 292.201965,413.470947 
	C306.269745,406.019318 321.397858,401.405151 337.291565,399.664490 
	C340.839386,399.275970 342.853821,397.958466 343.926208,394.229462 
	C353.523132,360.857941 370.253906,331.746918 396.111145,308.224487 
	C415.029449,291.014496 436.800354,278.853882 461.738342,271.572845 
z"/>
</svg>